<?xml version="1.0" encoding="utf-8"?>
<!-- Generator: Adobe Illustrator 16.0.0, SVG Export Plug-In . SVG Version: 6.00 Build 0)  -->
<!DOCTYPE svg PUBLIC "-//W3C//DTD SVG 1.1//EN" "http://www.w3.org/Graphics/SVG/1.1/DTD/svg11.dtd">
<svg version="1.1" id="Layer_1" xmlns="http://www.w3.org/2000/svg" xmlns:xlink="http://www.w3.org/1999/xlink" x="0px" y="0px"
	 width="557.422px" height="49.404px" viewBox="0 0 557.422 49.404" enable-background="new 0 0 557.422 49.404"
	 xml:space="preserve">
<g>
	<path fill="#FFFFFF" d="M96.276,39.263c0,0.799-0.269,1.465-0.805,2.002c-0.537,0.536-1.204,0.805-2.001,0.805
		c-0.798,0-1.472-0.269-2.024-0.805c-0.552-0.537-0.828-1.203-0.828-2.002V12.492c0-0.797,0.276-1.472,0.828-2.024
		c0.552-0.552,1.227-0.827,2.024-0.827h18.768c0.706,0,1.311,0.253,1.817,0.759c0.506,0.506,0.759,1.111,0.759,1.816
		c0,0.706-0.253,1.312-0.759,1.817c-0.506,0.506-1.112,0.759-1.817,0.759H96.276V39.263z"/>
	<path fill="#FFFFFF" d="M133.996,42.344c-4.263,0-7.613-1.211-10.051-3.633c-2.438-2.423-3.657-5.935-3.657-10.535V12.216
		c0-0.797,0.276-1.464,0.828-2.001c0.552-0.535,1.226-0.805,2.024-0.805c0.766,0,1.426,0.27,1.978,0.805
		c0.552,0.537,0.828,1.204,0.828,2.001v15.732c0,2.944,0.713,5.206,2.139,6.785c1.426,1.579,3.427,2.369,6.003,2.369
		c2.545,0,4.531-0.76,5.957-2.277c1.426-1.519,2.139-3.733,2.139-6.647V12.216c0-0.797,0.276-1.464,0.828-2.001
		c0.552-0.535,1.226-0.805,2.024-0.805c0.766,0,1.426,0.27,1.978,0.805c0.552,0.537,0.828,1.204,0.828,2.001v15.687
		c0,4.69-1.227,8.272-3.68,10.741C141.708,41.112,138.32,42.344,133.996,42.344z"/>
	<path fill="#FFFFFF" d="M163.527,39.263v-24.38h-7.82c-0.736,0-1.357-0.26-1.863-0.781c-0.506-0.521-0.759-1.135-0.759-1.84
		s0.253-1.318,0.759-1.841c0.506-0.521,1.127-0.781,1.863-0.781h21.39c0.705,0,1.311,0.261,1.817,0.781
		c0.506,0.522,0.759,1.136,0.759,1.841s-0.253,1.318-0.759,1.84c-0.506,0.521-1.112,0.781-1.817,0.781h-7.866v24.38
		c0,0.768-0.276,1.427-0.828,1.979c-0.552,0.553-1.227,0.828-2.024,0.828c-0.798,0-1.472-0.275-2.024-0.828
		C163.803,40.69,163.527,40.031,163.527,39.263z"/>
	<path fill="#FFFFFF" d="M198.625,42.344c-4.263,0-7.613-1.211-10.051-3.633c-2.438-2.423-3.657-5.935-3.657-10.535V12.216
		c0-0.797,0.276-1.464,0.828-2.001c0.552-0.535,1.226-0.805,2.024-0.805c0.766,0,1.426,0.27,1.978,0.805
		c0.552,0.537,0.828,1.204,0.828,2.001v15.732c0,2.944,0.713,5.206,2.139,6.785c1.426,1.579,3.427,2.369,6.002,2.369
		c2.546,0,4.531-0.76,5.957-2.277c1.427-1.519,2.14-3.733,2.14-6.647V12.216c0-0.797,0.275-1.464,0.828-2.001
		c0.552-0.535,1.226-0.805,2.023-0.805c0.767,0,1.426,0.27,1.979,0.805c0.552,0.537,0.828,1.204,0.828,2.001v15.687
		c0,4.69-1.228,8.272-3.681,10.741C206.336,41.112,202.949,42.344,198.625,42.344z"/>
	<path fill="#FFFFFF" d="M220.244,39.263V12.492c0-0.797,0.276-1.472,0.828-2.024c0.552-0.552,1.227-0.827,2.024-0.827h11.5
		c3.986,0,7.084,1.073,9.292,3.22c1.778,1.84,2.668,4.156,2.668,6.946v0.092c0,2.483-0.652,4.531-1.955,6.141
		c-1.304,1.61-3.09,2.769-5.359,3.474l6.164,7.773c0.613,0.767,0.92,1.487,0.92,2.162c0,0.767-0.275,1.396-0.828,1.886
		c-0.552,0.491-1.181,0.736-1.886,0.736c-1.104,0-2.023-0.49-2.76-1.473l-7.82-9.981h-7.13v8.647c0,0.799-0.269,1.465-0.805,2.002
		c-0.537,0.536-1.204,0.805-2.001,0.805c-0.798,0-1.473-0.269-2.024-0.805C220.521,40.728,220.244,40.062,220.244,39.263z
		 M225.902,25.602h8.28c2.023,0,3.634-0.49,4.83-1.473c1.195-0.98,1.794-2.283,1.794-3.91v-0.092c0-1.717-0.583-3.036-1.748-3.956
		c-1.166-0.92-2.806-1.38-4.922-1.38h-8.234V25.602L225.902,25.602z"/>
	<path fill="#FFFFFF" d="M256.354,41.839c-0.798,0-1.473-0.274-2.024-0.828c-0.552-0.551-0.828-1.226-0.828-2.022V12.492
		c0-0.797,0.276-1.472,0.828-2.024c0.552-0.552,1.227-0.827,2.024-0.827h18.722c0.705,0,1.304,0.245,1.794,0.735
		c0.49,0.491,0.736,1.089,0.736,1.794c0,0.706-0.246,1.305-0.736,1.794c-0.49,0.491-1.089,0.736-1.794,0.736H259.16v8.372h13.846
		c0.705,0,1.304,0.253,1.795,0.759c0.489,0.506,0.735,1.112,0.735,1.817c0,0.675-0.246,1.258-0.735,1.748
		c-0.491,0.489-1.09,0.735-1.795,0.735H259.16v8.647h16.146c0.674,0,1.265,0.246,1.771,0.735c0.506,0.491,0.759,1.09,0.759,1.795
		s-0.245,1.304-0.735,1.794c-0.491,0.49-1.089,0.734-1.794,0.734L256.354,41.839L256.354,41.839z"/>
	<path fill="#FFFFFF" d="M298.122,39.31V12.308c0-0.798,0.274-1.473,0.828-2.024c0.551-0.552,1.227-0.828,2.022-0.828h0.598
		c1.104,0,1.979,0.506,2.623,1.519l9.752,15.271l9.798-15.318c0.613-0.98,1.473-1.472,2.576-1.472h0.598
		c0.799,0,1.474,0.276,2.024,0.828c0.552,0.552,0.828,1.227,0.828,2.024v26.956c0,0.799-0.276,1.465-0.828,2.002
		c-0.552,0.536-1.228,0.805-2.024,0.805c-0.767,0-1.426-0.275-1.978-0.828c-0.552-0.552-0.828-1.211-0.828-1.979v-19.32
		l-7.866,11.821c-0.644,0.981-1.441,1.473-2.392,1.473c-0.92,0-1.703-0.49-2.347-1.473l-7.819-11.729V39.31
		c0,0.767-0.271,1.418-0.806,1.955c-0.536,0.536-1.205,0.805-2.002,0.805s-1.457-0.269-1.979-0.805
		C298.379,40.728,298.122,40.077,298.122,39.31z"/>
	<path fill="#FFFFFF" d="M335.84,39.448c0-0.368,0.121-0.797,0.367-1.288l11.961-26.68c0.705-1.533,1.84-2.3,3.404-2.3h0.275
		c1.533,0,2.652,0.767,3.357,2.3l11.961,26.68c0.215,0.398,0.321,0.798,0.321,1.196c0,0.767-0.254,1.411-0.76,1.933
		c-0.506,0.522-1.144,0.781-1.908,0.781c-1.289,0-2.209-0.659-2.76-1.979l-2.623-6.024h-15.642l-2.713,6.21
		c-0.49,1.196-1.365,1.794-2.623,1.794c-0.733,0-1.354-0.253-1.86-0.759C336.092,40.804,335.84,40.184,335.84,39.448z
		 M345.959,29.052h11.316l-5.658-13.019L345.959,29.052z"/>
	<path fill="#FFFFFF" d="M373.606,39.263V12.492c0-0.797,0.277-1.472,0.828-2.024c0.553-0.552,1.227-0.827,2.025-0.827h11.5
		c3.985,0,7.084,1.073,9.291,3.22c1.779,1.84,2.668,4.156,2.668,6.946v0.092c0,2.483-0.652,4.531-1.955,6.141
		c-1.303,1.61-3.09,2.769-5.359,3.474l6.164,7.773c0.613,0.767,0.92,1.487,0.92,2.162c0,0.767-0.275,1.396-0.828,1.886
		c-0.551,0.491-1.18,0.736-1.885,0.736c-1.104,0-2.023-0.49-2.76-1.473l-7.82-9.981h-7.131v8.647c0,0.799-0.268,1.465-0.805,2.002
		c-0.537,0.536-1.203,0.805-2,0.805c-0.799,0-1.474-0.269-2.025-0.805C373.883,40.728,373.606,40.062,373.606,39.263z
		 M379.265,25.602h8.28c2.023,0,3.634-0.49,4.83-1.473c1.195-0.98,1.793-2.283,1.793-3.91v-0.092c0-1.717-0.582-3.036-1.748-3.956
		s-2.805-1.38-4.922-1.38h-8.233V25.602z"/>
	<path fill="#FFFFFF" d="M406.864,39.263V12.216c0-0.797,0.275-1.464,0.828-2.001c0.551-0.535,1.227-0.805,2.023-0.805
		c0.795,0,1.465,0.27,2.002,0.805c0.535,0.537,0.805,1.204,0.805,2.001v13.616l15.271-15.364c0.645-0.704,1.426-1.058,2.346-1.058
		c0.768,0,1.396,0.261,1.887,0.782s0.736,1.135,0.736,1.84c0,0.798-0.338,1.503-1.012,2.116l-10.029,9.66l10.855,13.478
		c0.52,0.675,0.783,1.352,0.783,2.024c0,0.767-0.275,1.418-0.828,1.955c-0.553,0.536-1.229,0.805-2.023,0.805
		c-0.92,0-1.719-0.444-2.393-1.334l-10.352-13.202l-5.242,5.06v6.671c0,0.799-0.271,1.465-0.807,2.002
		c-0.537,0.536-1.205,0.805-2.002,0.805s-1.473-0.269-2.021-0.805C407.139,40.728,406.864,40.062,406.864,39.263z"/>
	<path fill="#FFFFFF" d="M442.514,41.839c-0.799,0-1.473-0.274-2.023-0.828c-0.551-0.551-0.828-1.226-0.828-2.022V12.492
		c0-0.797,0.277-1.472,0.828-2.024c0.553-0.552,1.227-0.827,2.023-0.827h18.723c0.705,0,1.305,0.245,1.795,0.735
		c0.49,0.491,0.734,1.089,0.734,1.794c0,0.706-0.244,1.305-0.734,1.794c-0.49,0.491-1.09,0.736-1.795,0.736h-15.916v8.372h13.846
		c0.705,0,1.305,0.253,1.795,0.759s0.736,1.112,0.736,1.817c0,0.675-0.246,1.258-0.736,1.748c-0.49,0.489-1.09,0.735-1.795,0.735
		h-13.846v8.647h16.145c0.674,0,1.268,0.246,1.771,0.735c0.506,0.491,0.758,1.09,0.758,1.795s-0.244,1.304-0.734,1.794
		c-0.492,0.49-1.09,0.734-1.795,0.734L442.514,41.839L442.514,41.839z"/>
	<path fill="#FFFFFF" d="M478.395,39.263v-24.38h-7.818c-0.736,0-1.357-0.26-1.863-0.781c-0.506-0.522-0.76-1.135-0.76-1.84
		s0.254-1.318,0.76-1.841c0.506-0.521,1.127-0.781,1.863-0.781h21.389c0.705,0,1.311,0.261,1.818,0.781
		c0.506,0.522,0.758,1.136,0.758,1.841s-0.252,1.318-0.758,1.84c-0.508,0.521-1.113,0.781-1.818,0.781H484.1v24.38
		c0,0.768-0.275,1.427-0.828,1.979c-0.553,0.553-1.227,0.828-2.023,0.828c-0.799,0-1.473-0.275-2.025-0.828
		C478.67,40.69,478.395,40.031,478.395,39.263z"/>
	<path fill="#FFFFFF" d="M503.141,41.839c-0.797,0-1.473-0.274-2.021-0.828c-0.553-0.551-0.828-1.226-0.828-2.022V12.492
		c0-0.797,0.275-1.472,0.828-2.024c0.551-0.552,1.227-0.827,2.021-0.827h18.725c0.705,0,1.303,0.245,1.793,0.735
		c0.49,0.491,0.736,1.089,0.736,1.794c0,0.706-0.246,1.305-0.736,1.794c-0.49,0.491-1.088,0.736-1.793,0.736H505.95v8.372h13.846
		c0.705,0,1.303,0.253,1.795,0.759c0.488,0.506,0.734,1.112,0.734,1.817c0,0.675-0.246,1.258-0.734,1.748
		c-0.492,0.489-1.09,0.735-1.795,0.735H505.95v8.647h16.145c0.674,0,1.266,0.246,1.771,0.735c0.506,0.491,0.76,1.09,0.76,1.795
		s-0.246,1.304-0.736,1.794s-1.088,0.734-1.793,0.734L503.141,41.839L503.141,41.839z"/>
	<path fill="#FFFFFF" d="M531.11,30.626V12.492c0-0.797,0.275-1.472,0.828-2.024c0.551-0.552,1.227-0.827,2.023-0.827h11.5
		c3.986,0,7.084,1.073,9.293,3.22c1.777,1.84,2.668,4.156,2.668,6.946v0.092c0,2.483-0.652,4.531-1.955,6.141
		c-1.305,1.61-3.09,2.769-5.359,3.474l6.164,7.773c0.613,0.767,0.92,1.487,0.92,2.162c0,0.767-0.275,1.396-0.828,1.886
		c-0.553,0.491-1.182,0.736-1.887,0.736c-1.104,0-2.023-0.49-2.76-1.473l-7.82-9.981h-7.129L531.11,30.626z M536.768,25.602h8.279
		c2.023,0,3.635-0.49,4.83-1.473c1.195-0.98,1.795-2.283,1.795-3.91v-0.092c0-1.717-0.584-3.036-1.748-3.956
		c-1.166-0.92-2.807-1.38-4.922-1.38h-8.234V25.602z"/>
</g>
<path fill="#F8C82D" d="M63.179,49.404H2.714C1.216,49.404,0,48.187,0,46.689c0-1.5,1.216-2.716,2.714-2.716h60.464
	c1.499,0,2.714,1.216,2.714,2.716C65.893,48.187,64.678,49.404,63.179,49.404z"/>
<path fill="#F8C82D" d="M54.934,27.416H10.959c-1.499,0-2.714-1.215-2.714-2.714c0-1.5,1.216-2.714,2.714-2.714h43.974
	c1.5,0,2.715,1.215,2.715,2.714S56.433,27.416,54.934,27.416z"/>
<path fill="#F8C82D" d="M27.45,38.41H8.211c-1.499,0-2.715-1.215-2.715-2.715s1.216-2.715,2.715-2.715H27.45
	c1.5,0,2.715,1.215,2.715,2.715S28.95,38.41,27.45,38.41z"/>
<path fill="#F8C82D" d="M57.682,38.41H38.443c-1.5,0-2.715-1.215-2.715-2.715s1.215-2.715,2.715-2.715h19.239
	c1.499,0,2.714,1.215,2.714,2.715S59.181,38.41,57.682,38.41z"/>
<path fill="#F8C82D" d="M49.436,16.423H38.443c-1.5,0-2.715-1.216-2.715-2.714c0-1.5,1.215-2.715,2.715-2.715h10.993
	c1.5,0,2.715,1.215,2.715,2.715C52.151,15.207,50.936,16.423,49.436,16.423z"/>
<path fill="#F8C82D" d="M27.45,16.423H16.456c-1.499,0-2.714-1.216-2.714-2.714c0-1.5,1.216-2.715,2.714-2.715H27.45
	c1.499,0,2.714,1.215,2.714,2.715C30.165,15.207,28.949,16.423,27.45,16.423z"/>
<path fill="#F8C82D" d="M41.191,5.43h-16.49c-1.5,0-2.714-1.217-2.714-2.717C21.987,1.216,23.202,0,24.702,0h16.49
	c1.5,0,2.715,1.216,2.715,2.714C43.906,4.214,42.691,5.43,41.191,5.43z"/>
<path fill="#FFFFFF" d="M101.457,28.767c-0.736,0-1.357-0.261-1.863-0.781c-0.506-0.521-0.759-1.135-0.759-1.841
	c0-0.705,0.253-1.318,0.759-1.84c0.506-0.521,1.127-0.782,1.863-0.782h8.381c0.705,0,1.311,0.261,1.817,0.782
	c0.506,0.521,0.759,1.135,0.759,1.84c0,0.706-0.253,1.318-0.759,1.841c-0.506,0.521-1.112,0.781-1.817,0.781H101.457z"/>
<path fill="#FFFFFF" d="M531.104,36.187c0-0.791,0.281-1.461,0.844-2.006c0.561-0.546,1.221-0.818,1.98-0.818
	s1.42,0.272,1.982,0.818c0.561,0.545,0.842,1.215,0.842,2.006v3.1c0,0.76-0.281,1.412-0.842,1.957
	c-0.562,0.545-1.223,0.818-1.982,0.818c-0.762,0-1.42-0.273-1.98-0.818c-0.562-0.545-0.844-1.197-0.844-1.957V36.187z"/>
</svg>
